<?xml version="1.0" encoding="UTF-8"?>
<svg id="Capa_1" xmlns="http://www.w3.org/2000/svg" version="1.1" viewBox="0 0 841.89 595.28">
  <!-- Generator: Adobe Illustrator 29.0.1, SVG Export Plug-In . SVG Version: 2.1.0 Build 192)  -->
  <defs>
    <style>
      .st0 {
        fill: #00c600;
      }

      .st1 {
        fill: #1036e2;
      }
    </style>
  </defs>
  <path class="st1" d="M247.78,242.66l14.53,31.53,14.47-31.53h14.58l-29.17,60.01-28.94-60.01h14.53Z"/>
  <path class="st1" d="M442.07,298.8l-14.53-31.53-14.47,31.53h-14.58l29.17-60.01,28.94,60.01h-14.53Z"/>
  <path class="st0" d="M413.81,316.91l13.85-28.49,13.74,28.49h-27.59Z"/>
  <path class="st1" d="M349.24,273.78h-40.24c.35,4.61,1.84,8.28,4.5,11.01,2.65,2.69,6.05,4.04,10.2,4.04,3.23,0,5.9-.77,8.01-2.31,2.08-1.54,4.44-4.38,7.09-8.53l10.95,6.11c-1.69,2.88-3.48,5.35-5.36,7.41-1.88,2.06-3.9,3.75-6.05,5.07-2.15,1.33-4.48,2.3-6.98,2.91-2.5.61-5.21.92-8.13.92-8.38,0-15.1-2.69-20.18-8.07-5.07-5.42-7.61-12.6-7.61-21.56s2.46-16.06,7.38-21.56c4.96-5.42,11.53-8.13,19.72-8.13s14.8,2.63,19.6,7.9c4.77,5.23,7.15,12.47,7.15,21.73l-.06,3.06ZM335.92,263.18c-1.81-6.92-6.17-10.38-13.09-10.38-1.58,0-3.06.24-4.44.72-1.38.48-2.64,1.17-3.78,2.08-1.13.9-2.1,1.99-2.91,3.26s-1.42,2.71-1.84,4.32h26.06Z"/>
  <path class="st1" d="M383.14,254.76v44.04h-12.97v-44.04h-15.1v-12.11h43.42v12.11h-15.35Z"/>
  <path class="st1" d="M585.61,275.98v22.81h-8.48v-56.17h9.6c4.71,0,8.26.33,10.66.98,2.42.65,4.56,1.89,6.4,3.71,3.22,3.15,4.84,7.13,4.84,11.93,0,5.14-1.72,9.22-5.17,12.22-3.44,3.01-8.09,4.51-13.93,4.51h-3.93ZM585.61,268.13h3.16c7.78,0,11.68-2.99,11.68-8.99s-4.01-8.69-12.04-8.69h-2.8v17.68Z"/>
  <path class="st1" d="M510.23,249.18l-5.76,5.68c-4.96-4.15-10.09-6.22-15.4-6.22-5.84,0-10.77,2.1-14.77,6.3-4.03,4.17-6.04,9.28-6.04,15.32s2.01,11,6.04,15.1c4.03,4.1,8.96,6.15,14.81,6.15,3.02,0,5.59-.49,7.7-1.47,1.18-.49,2.4-1.15,3.66-1.99,1.27-.83,2.6-1.84,4-3.02l5.97,5.78c-5.68,4.64-10.95,8.73-21.44,8.73-8.13,0-15.06-2.84-20.81-8.51-5.72-5.72-8.58-12.62-8.58-20.7,0-7.24,2.39-13.7,7.18-19.37,5.89-6.95,13.52-10.42,22.87-10.42,8.28,0,15.9,4.09,20.57,8.65Z"/>
  <path class="st1" d="M552.68,284.99h-24.34l-6.33,13.81h-9.24l28.14-60.44,27.14,60.44h-9.39l-5.97-13.81ZM549.18,276.93l-8.43-19.34-8.84,19.34h17.27Z"/>
</svg>